<svg id="line_icons" height="512" viewBox="0 0 74 74" width="512" xmlns="http://www.w3.org/2000/svg" data-name="line icons"><path d="m47.077 49.612h-20.163a1 1 0 0 1 -1-1v-31.305c0-.036 0-.072 0-.108.613-5.652 4.051-10.566 10.509-15.022a1 1 0 0 1 1.135 0c6.467 4.455 9.9 9.37 10.508 15.025a.928.928 0 0 1 .006.106v31.304a1 1 0 0 1 -.995 1zm-19.163-2h18.163v-30.251c-.543-4.925-3.435-9.115-9.077-13.14-5.639 4.027-8.531 8.217-9.082 13.141z"/><path d="m21.762 51.678a1 1 0 0 1 -.735-.321l-1.352-1.468a10.571 10.571 0 0 1 -2.033-11.277l.051-.12a16.83 16.83 0 0 1 8.881-8.844 1 1 0 0 1 1.34.941v14.069a1 1 0 0 1 -.471.848 13.369 13.369 0 0 0 -4.755 5.554 1 1 0 0 1 -.75.6 1.037 1.037 0 0 1 -.176.018zm-3.2-12.673.919.392a8.567 8.567 0 0 0 1.665 9.137l.38.413a15.183 15.183 0 0 1 4.388-4.829v-11.928a15.293 15.293 0 0 0 -6.388 7.1z"/><path d="m52.238 51.678a1.037 1.037 0 0 1 -.176-.015 1 1 0 0 1 -.75-.6 13.369 13.369 0 0 0 -4.755-5.554 1 1 0 0 1 -.471-.848v-14.072a1 1 0 0 1 1.34-.941 16.83 16.83 0 0 1 8.881 8.844l.051.12a10.571 10.571 0 0 1 -2.033 11.277l-1.352 1.468a1 1 0 0 1 -.735.321zm-4.152-7.56a15.183 15.183 0 0 1 4.388 4.829l.38-.413a8.567 8.567 0 0 0 1.665-9.134l.871-.5-.916.4a15.293 15.293 0 0 0 -6.388-7.1z"/><path d="m37 22.143a5.267 5.267 0 1 1 5.266-5.267 5.273 5.273 0 0 1 -5.266 5.267zm0-8.533a3.267 3.267 0 1 0 3.266 3.266 3.27 3.27 0 0 0 -3.266-3.266z"/><path d="m46.042 53.746h-18.093a1 1 0 0 1 -1-1v-4.134a1 1 0 0 1 1-1h18.093a1 1 0 0 1 1 1v4.134a1 1 0 0 1 -1 1zm-17.093-2h16.093v-2.134h-16.093z"/><path d="m37.067 72a3.332 3.332 0 0 1 -2.988-2.221 24.834 24.834 0 0 0 -3.38-5.486c-2.243-2.942-4.015-5.266-1.665-11.881a1 1 0 0 1 .942-.666h14.024a1 1 0 0 1 .943.666 16.636 16.636 0 0 1 1.135 5.433c0 2.822-1.264 4.512-2.727 6.469a25.11 25.11 0 0 0 -3.312 5.466 3.312 3.312 0 0 1 -2.966 2.22zm-6.376-18.254c-1.661 5.059-.479 6.61 1.6 9.335a26.881 26.881 0 0 1 3.624 5.9c.277.638.709 1.019 1.154 1.019.44 0 .864-.379 1.136-1.01a27.192 27.192 0 0 1 3.547-5.874c1.4-1.875 2.329-3.114 2.329-5.271a13.532 13.532 0 0 0 -.793-4.1z"/><path d="m37.032 62.541a2.2 2.2 0 0 1 -1.974-1.429 12.27 12.27 0 0 0 -1.663-2.7c-1.128-1.485-2.1-2.767-1.109-5.966a1 1 0 0 1 .955-.7h7.5a1 1 0 0 1 .954.7 8.076 8.076 0 0 1 .424 2.376 5.6 5.6 0 0 1 -1.49 3.6 12.433 12.433 0 0 0 -1.629 2.689 2.192 2.192 0 0 1 -1.964 1.43zm-3.032-8.795c-.382 1.662.084 2.275.983 3.458a14.2 14.2 0 0 1 1.905 3.11.52.52 0 0 0 .159.228c-.015-.016.051-.078.112-.221a14.268 14.268 0 0 1 1.869-3.1 3.767 3.767 0 0 0 1.091-2.4 4.831 4.831 0 0 0 -.141-1.079z"/><path d="m37 44.046a1 1 0 0 1 -1-1v-5.862a1 1 0 0 1 2 0v5.862a1 1 0 0 1 -1 1z"/><path d="m32.3 44.021a1 1 0 0 1 -1-1v-2.578a1 1 0 0 1 2 0v2.578a1 1 0 0 1 -1 1z"/><path d="m41.688 44.021a1 1 0 0 1 -1-1v-2.578a1 1 0 0 1 2 0v2.578a1 1 0 0 1 -1 1z"/></svg>